<?xml version="1.0" encoding="UTF-8"?>
<svg xmlns="http://www.w3.org/2000/svg" viewBox="0 0 256 256">
  <defs>
    <linearGradient id="g" x1="0" y1="0" x2="1" y2="1">
      <stop offset="0" stop-color="#2c8a9b"/>
      <stop offset="1" stop-color="#7bbf9e"/>
    </linearGradient>
  </defs>
  <rect width="256" height="256" rx="56" fill="url(#g)"/>
  <g fill="#fff" transform="translate(44,36)">
    <path d="M48 150c-24 0-40-16-40-42V44h20v64c0 14 8 24 22 24 14 0 22-10 22-24V44h20v64c0 26-16 42-44 42Z"/>
    <path d="M132 44h20v52c0 16 8 24 22 24 4 0 8-1 12-2v18c-5 2-11 3-18 3-22 0-36-14-36-37V44Z"/>
  </g>
</svg>
